<?xml version="1.0" encoding="UTF-8" standalone="no"?>
<!-- Created with Inkscape (http://www.inkscape.org/) -->

<svg
   width="99.958801mm"
   height="99.958801mm"
   viewBox="0 0 99.958801 99.958801"
   version="1.1"
   id="svg8"
   xmlns="http://www.w3.org/2000/svg"
   xmlns:svg="http://www.w3.org/2000/svg"
   xmlns:rdf="http://www.w3.org/1999/02/22-rdf-syntax-ns#"
   xmlns:cc="http://creativecommons.org/ns#"
   xmlns:dc="http://purl.org/dc/elements/1.1/">
  <defs
     id="defs2" />
  <metadata
     id="metadata5">
    <rdf:RDF>
      <cc:Work
         rdf:about="">
        <dc:format>image/svg+xml</dc:format>
        <dc:type
           rdf:resource="http://purl.org/dc/dcmitype/StillImage" />
      </cc:Work>
    </rdf:RDF>
  </metadata>
  <g
     id="layer1"
     transform="translate(-55.020599,-98.520607)">
    <path
       id="rect4528"
       style="fill:#ffffff;fill-opacity:0;stroke-width:0.217005"
       d="M 55.020599,98.520607 H 154.9794 V 198.47941 H 55.020599 Z" />
    <path
       id="path4532"
       style="fill:#2c3e50;stroke-width:0.264583"
       d="M 154.9794,148.5 A 49.979401,49.979397 0 0 1 105,198.4794 49.979401,49.979397 0 0 1 55.020599,148.5 49.979401,49.979397 0 0 1 105,98.520603 49.979401,49.979397 0 0 1 154.9794,148.5 Z" />
    <g
       aria-label="MS²Rescore"
       transform="matrix(0.26458333,0,0,0.26458333,-10.959949,42.545818)"
       id="flowRoot3713"
       style="font-weight:300;font-size:24px;line-height:1.25;font-family:Bahnschrift;-inkscape-font-specification:'Bahnschrift, Light';text-align:center;letter-spacing:0px;word-spacing:0px;text-anchor:middle;fill:#fafafa">
      <path
         d="m 306.55638,420.11009 -0.10667,-19.78666 -9.59999,16.10666 h -4.69333 l -9.54666,-15.57332 v 19.25332 h -9.76 v -37.33331 h 8.69333 l 13.11999,21.54665 12.8,-21.54665 h 8.69332 l 0.10667,37.33331 z"
         style="font-weight:normal;font-size:53.3333px;font-family:'Montserrat ExtraBold';-inkscape-font-specification:'Montserrat ExtraBold, '"
         id="path2422" />
      <path
         d="m 336.84962,420.85675 q -4.53333,0 -8.79999,-1.11999 -4.26667,-1.12 -6.93333,-2.98667 l 3.46666,-7.78666 q 2.50667,1.65333 5.81333,2.66666 3.30667,1.01334 6.50666,1.01334 6.08,0 6.08,-3.04 0,-1.6 -1.76,-2.34667 -1.70666,-0.8 -5.54666,-1.65333 -4.21333,-0.90667 -7.04,-1.92 -2.82666,-1.06666 -4.85333,-3.36 -2.02666,-2.29333 -2.02666,-6.18666 0,-3.41333 1.86666,-6.13333 1.86667,-2.77333 5.54666,-4.37333 3.73334,-1.6 9.12,-1.6 3.68,0 7.25333,0.85333 3.57333,0.8 6.29333,2.4 l -3.25333,7.84 q -5.33333,-2.88 -10.34666,-2.88 -3.14667,0 -4.58667,0.96 -1.44,0.90667 -1.44,2.4 0,1.49333 1.70667,2.24 1.70666,0.74666 5.49333,1.54666 4.26666,0.90667 7.03999,1.97333 2.82667,1.01334 4.85333,3.30667 2.08,2.24 2.08,6.13333 0,3.36 -1.86666,6.08 -1.86667,2.71999 -5.6,4.37333 -3.73333,1.59999 -9.06666,1.59999 z"
         style="font-weight:normal;font-size:53.3333px;font-family:'Montserrat ExtraBold';-inkscape-font-specification:'Montserrat ExtraBold, '"
         id="path2424" />
      <path
         d="m 375.56956,397.3901 v 5.28 h -19.03999 v -4.21333 l 8.85333,-7.62666 q 1.33333,-1.12 1.81333,-1.86667 0.48,-0.8 0.48,-1.49333 0,-0.90667 -0.74666,-1.44 -0.74667,-0.58667 -2.29333,-0.58667 -1.44,0 -2.56,0.58667 -1.06667,0.53333 -1.70667,1.6 l -5.17333,-2.77333 q 1.28,-2.24 3.84,-3.52 2.56,-1.28 6.23999,-1.28 4.32,0 6.93333,1.92 2.61334,1.86666 2.61334,4.96 0,1.70666 -0.90667,3.25333 -0.90667,1.54666 -3.36,3.73333 l -4.05333,3.46666 z"
         style="font-weight:normal;font-size:53.3333px;font-family:'Montserrat ExtraBold';-inkscape-font-specification:'Montserrat ExtraBold, '"
         id="path2426" />
      <path
         d="m 397.48946,410.19009 h -5.75999 v 9.92 h -10.56 v -37.33331 h 17.06666 q 5.06666,0 8.8,1.70666 3.73333,1.65334 5.75999,4.8 2.02667,3.09333 2.02667,7.30666 0,4.05333 -1.92,7.09333 -1.86667,2.98667 -5.38666,4.69333 l 8.05332,11.73333 h -11.30666 z m 6.66667,-13.59999 q 0,-2.61333 -1.65334,-4.05333 -1.65333,-1.44 -4.90666,-1.44 h -5.86666 v 10.93333 h 5.86666 q 3.25333,0 4.90666,-1.38667 1.65334,-1.44 1.65334,-4.05333 z"
         style="font-weight:normal;font-size:53.3333px;font-family:'Montserrat ExtraBold';-inkscape-font-specification:'Montserrat ExtraBold, '"
         id="path2428" />
      <path
         d="m 449.70276,405.7101 q 0,0.10666 -0.16,2.50666 h -21.01332 q 0.64,2.24 2.45333,3.46667 1.86667,1.17333 4.64,1.17333 2.08,0 3.57333,-0.58667 1.54667,-0.58666 3.09333,-1.92 l 5.33333,5.54667 q -4.21333,4.69333 -12.31999,4.69333 -5.06667,0 -8.90666,-1.92 -3.84,-1.92 -5.97333,-5.33333 -2.08,-3.41333 -2.08,-7.73333 0,-4.26666 2.02666,-7.62666 2.08,-3.41333 5.70667,-5.33333 3.62666,-1.92 8.15999,-1.92 4.32,0 7.84,1.81333 3.52,1.76 5.54666,5.17333 2.08,3.36 2.08,8 z m -15.41332,-7.78666 q -2.34667,0 -3.94667,1.33333 -1.54666,1.33333 -1.97333,3.62666 h 11.83999 q -0.42666,-2.29333 -2.02666,-3.62666 -1.54667,-1.33333 -3.89333,-1.33333 z"
         style="font-weight:normal;font-size:53.3333px;font-family:'Montserrat ExtraBold';-inkscape-font-specification:'Montserrat ExtraBold, '"
         id="path2430" />
      <path
         d="m 464.90265,420.59009 q -3.62666,0 -7.14666,-0.8 -3.52,-0.85333 -5.65333,-2.18667 l 3.04,-6.93333 q 1.97333,1.22667 4.69333,1.97334 2.72,0.69333 5.38666,0.69333 2.45334,0 3.46667,-0.48 1.06667,-0.53333 1.06667,-1.49333 0,-0.96 -1.28,-1.33334 -1.22667,-0.42666 -3.94667,-0.79999 -3.46666,-0.42667 -5.91999,-1.12 -2.4,-0.69334 -4.16,-2.56 -1.76,-1.86667 -1.76,-5.22667 0,-2.77333 1.65333,-4.90666 1.65333,-2.18667 4.8,-3.41333 3.2,-1.28 7.62666,-1.28 3.14667,0 6.24,0.64 3.09333,0.64 5.17333,1.81333 l -3.04,6.88 q -3.84,-2.13333 -8.32,-2.13333 -2.39999,0 -3.51999,0.58666 -1.12,0.53333 -1.12,1.44 0,1.01333 1.22666,1.44 1.22667,0.37333 4.05333,0.8 3.57333,0.53333 5.92,1.22667 2.34667,0.69333 4.05333,2.55999 1.76,1.81334 1.76,5.12 0,2.72 -1.65333,4.90666 -1.65334,2.13334 -4.90667,3.36 -3.19999,1.22667 -7.73333,1.22667 z"
         style="font-weight:normal;font-size:53.3333px;font-family:'Montserrat ExtraBold';-inkscape-font-specification:'Montserrat ExtraBold, '"
         id="path2432" />
      <path
         d="m 498.34258,420.59009 q -4.79999,0 -8.58666,-1.92 -3.78666,-1.92 -5.92,-5.33333 -2.07999,-3.41333 -2.07999,-7.73333 0,-4.32 2.07999,-7.67999 2.13334,-3.41334 5.92,-5.28 3.78667,-1.92 8.58666,-1.92 4.90667,0 8.48,2.13333 3.57333,2.08 5.06666,5.81333 l -7.83999,4 q -1.97334,-3.89333 -5.76,-3.89333 -2.72,0 -4.53333,1.81333 -1.76,1.81333 -1.76,5.01333 0,3.25333 1.76,5.12 1.81333,1.81333 4.53333,1.81333 3.78666,0 5.76,-3.89333 l 7.83999,4 q -1.49333,3.73333 -5.06666,5.86666 -3.57333,2.08 -8.48,2.08 z"
         style="font-weight:normal;font-size:53.3333px;font-family:'Montserrat ExtraBold';-inkscape-font-specification:'Montserrat ExtraBold, '"
         id="path2434" />
      <path
         d="m 529.91581,420.59009 q -4.64,0 -8.37333,-1.92 -3.73333,-1.92 -5.86667,-5.33333 -2.07999,-3.41333 -2.07999,-7.73333 0,-4.26666 2.07999,-7.67999 2.13334,-3.41334 5.81333,-5.28 3.73333,-1.92 8.42667,-1.92 4.69333,0 8.42666,1.92 3.73333,1.86666 5.81333,5.28 2.08,3.35999 2.08,7.67999 0,4.32 -2.08,7.73333 -2.08,3.41333 -5.81333,5.33333 -3.73333,1.92 -8.42666,1.92 z m 0,-8.05333 q 2.66666,0 4.37333,-1.81333 1.70666,-1.86667 1.70666,-5.12 0,-3.2 -1.70666,-5.01333 -1.70667,-1.81333 -4.37333,-1.81333 -2.66667,0 -4.37334,1.81333 -1.70666,1.81333 -1.70666,5.01333 0,3.25333 1.70666,5.12 1.70667,1.81333 4.37334,1.81333 z"
         style="font-weight:normal;font-size:53.3333px;font-family:'Montserrat ExtraBold';-inkscape-font-specification:'Montserrat ExtraBold, '"
         id="path2436" />
      <path
         d="m 560.58236,394.6701 q 1.54666,-1.97333 3.99999,-2.93333 2.50667,-1.01333 5.70667,-1.01333 v 9.11999 q -1.38667,-0.16 -2.29333,-0.16 -3.25334,0 -5.12,1.76 -1.81333,1.76 -1.81333,5.38667 v 13.27999 h -10.13333 v -28.90665 h 9.65333 z"
         style="font-weight:normal;font-size:53.3333px;font-family:'Montserrat ExtraBold';-inkscape-font-specification:'Montserrat ExtraBold, '"
         id="path2438" />
      <path
         d="m 603.72885,405.7101 q 0,0.10666 -0.16,2.50666 h -21.01332 q 0.64,2.24 2.45333,3.46667 1.86667,1.17333 4.64,1.17333 2.08,0 3.57333,-0.58667 1.54667,-0.58666 3.09333,-1.92 l 5.33333,5.54667 q -4.21333,4.69333 -12.31999,4.69333 -5.06666,0 -8.90666,-1.92 -3.84,-1.92 -5.97333,-5.33333 -2.08,-3.41333 -2.08,-7.73333 0,-4.26666 2.02667,-7.62666 2.08,-3.41333 5.70666,-5.33333 3.62666,-1.92 8.16,-1.92 4.31999,0 7.83999,1.81333 3.52,1.76 5.54666,5.17333 2.08,3.36 2.08,8 z m -15.41332,-7.78666 q -2.34667,0 -3.94667,1.33333 -1.54666,1.33333 -1.97333,3.62666 h 11.83999 q -0.42666,-2.29333 -2.02666,-3.62666 -1.54667,-1.33333 -3.89333,-1.33333 z"
         style="font-weight:normal;font-size:53.3333px;font-family:'Montserrat ExtraBold';-inkscape-font-specification:'Montserrat ExtraBold, '"
         id="path2440" />
    </g>
  </g>
</svg>
