<?xml version="1.0" encoding="UTF-8" standalone="no"?>
<!-- Created with Inkscape (http://www.inkscape.org/) -->

<svg
   xmlns:dc="http://purl.org/dc/elements/1.1/"
   xmlns:cc="http://creativecommons.org/ns#"
   xmlns:rdf="http://www.w3.org/1999/02/22-rdf-syntax-ns#"
   xmlns:svg="http://www.w3.org/2000/svg"
   xmlns="http://www.w3.org/2000/svg"
   xmlns:sodipodi="http://sodipodi.sourceforge.net/DTD/sodipodi-0.dtd"
   xmlns:inkscape="http://www.inkscape.org/namespaces/inkscape"
   width="99.958801mm"
   height="99.958801mm"
   viewBox="0 0 99.958801 99.958801"
   version="1.1"
   id="svg8"
   sodipodi:docname="ms2rescore_logo.svg"
   inkscape:version="0.92.4 (5da689c313, 2019-01-14)">
  <defs
     id="defs2" />
  <sodipodi:namedview
     id="base"
     pagecolor="#ffffff"
     bordercolor="#666666"
     borderopacity="1.0"
     inkscape:pageopacity="0.0"
     inkscape:pageshadow="2"
     inkscape:zoom="0.98994949"
     inkscape:cx="-132.18548"
     inkscape:cy="268.00797"
     inkscape:document-units="mm"
     inkscape:current-layer="layer1"
     showgrid="false"
     inkscape:window-width="1842"
     inkscape:window-height="1177"
     inkscape:window-x="70"
     inkscape:window-y="-8"
     inkscape:window-maximized="1" />
  <metadata
     id="metadata5">
    <rdf:RDF>
      <cc:Work
         rdf:about="">
        <dc:format>image/svg+xml</dc:format>
        <dc:type
           rdf:resource="http://purl.org/dc/dcmitype/StillImage" />
        <dc:title></dc:title>
      </cc:Work>
    </rdf:RDF>
  </metadata>
  <g
     inkscape:label="Layer 1"
     inkscape:groupmode="layer"
     id="layer1"
     transform="translate(-55.020599,-98.520607)">
    <rect
       style="fill:#ffffff;fill-opacity:0;stroke-width:0.21700473"
       id="rect4528"
       width="99.958801"
       height="99.958801"
       x="55.020599"
       y="98.520607"
       inkscape:export-xdpi="254.10468"
       inkscape:export-ydpi="254.10468" />
    <ellipse
       style="fill:#2c3e50;fill-opacity:1;stroke-width:0.26458332"
       id="path4532"
       cx="105"
       cy="148.5"
       rx="49.979401"
       ry="49.979397" />
    <g
       aria-label="MS²ReScore"
       transform="matrix(0.26458333,0,0,0.26458333,-10.959949,42.545818)"
       style="font-style:normal;font-variant:normal;font-weight:300;font-stretch:normal;font-size:24px;line-height:1.25;font-family:Bahnschrift;-inkscape-font-specification:'Bahnschrift, Light';font-variant-ligatures:normal;font-variant-caps:normal;font-variant-numeric:normal;font-feature-settings:normal;text-align:center;letter-spacing:0px;word-spacing:0px;writing-mode:lr-tb;text-anchor:middle;fill:#fafafa;fill-opacity:1;stroke:none"
       id="flowRoot3713">
      <path
         sodipodi:type="inkscape:offset"
         inkscape:radius="0"
         inkscape:original="M 362.55078 380.05664 C 360.09745 380.05664 358.01721 380.4826 356.31055 381.33594 C 354.60388 382.18927 353.32404 383.36409 352.4707 384.85742 L 357.64453 387.63086 C 358.0712 386.91975 358.64045 386.38485 359.35156 386.0293 C 360.09823 385.63818 360.95211 385.44336 361.91211 385.44336 C 362.94322 385.44336 363.7073 385.63818 364.20508 386.0293 C 364.70286 386.38485 364.95117 386.86626 364.95117 387.4707 C 364.95117 387.93292 364.7907 388.42956 364.4707 388.96289 C 364.1507 389.46067 363.54709 390.08341 362.6582 390.83008 L 353.80469 398.45703 L 353.80469 402.66992 L 372.84375 402.66992 L 372.84375 397.39062 L 363.77734 397.39062 L 367.83203 393.92383 C 369.46758 392.46605 370.58696 391.22057 371.19141 390.18945 C 371.79585 389.15834 372.09766 388.07527 372.09766 386.9375 C 372.09766 384.87527 371.2266 383.221 369.48438 381.97656 C 367.74216 380.69656 365.43078 380.05664 362.55078 380.05664 z M 335.5918 382.0293 C 332.00068 382.0293 328.96154 382.56419 326.47266 383.63086 C 324.01932 384.69753 322.17023 386.15502 320.92578 388.00391 C 319.68133 389.81724 319.05859 391.86116 319.05859 394.13672 C 319.05859 396.73227 319.73482 398.79533 321.08594 400.32422 C 322.43705 401.85311 324.05501 402.97249 325.93945 403.68359 C 327.8239 404.35915 330.16963 404.99908 332.97852 405.60352 C 335.53852 406.17241 337.38761 406.72253 338.52539 407.25586 C 339.69872 407.75363 340.28516 408.53685 340.28516 409.60352 C 340.28516 411.63018 338.25841 412.64258 334.20508 412.64258 C 332.07174 412.64258 329.90367 412.30641 327.69922 411.63086 C 325.49478 410.95531 323.55588 410.06512 321.88477 408.96289 L 318.41797 416.75 C 320.19575 417.99445 322.50712 418.98966 325.35156 419.73633 C 328.196 420.48299 331.13012 420.85742 334.15234 420.85742 C 337.7079 420.85742 340.72986 420.32253 343.21875 419.25586 C 345.70764 418.15363 347.57392 416.69615 348.81836 414.88281 C 350.06281 413.06948 350.68555 411.04273 350.68555 408.80273 C 350.68555 406.20718 349.99214 404.16326 348.60547 402.66992 C 347.25436 401.14104 345.63639 400.03884 343.75195 399.36328 C 341.90306 398.65217 339.55733 397.99507 336.71289 397.39062 C 334.18844 396.85729 332.35653 396.34153 331.21875 395.84375 C 330.08098 395.34598 329.51172 394.59908 329.51172 393.60352 C 329.51172 392.60796 329.99313 391.80757 330.95312 391.20312 C 331.91312 390.56312 333.44129 390.24414 335.53906 390.24414 C 338.88129 390.24414 342.32921 391.20305 345.88477 393.12305 L 349.13867 385.2832 C 347.32534 384.21654 345.22792 383.41615 342.8457 382.88281 C 340.46348 382.31393 338.04513 382.0293 335.5918 382.0293 z M 466.73828 382.0293 C 463.14717 382.0293 460.10608 382.56419 457.61719 383.63086 C 455.16385 384.69753 453.31671 386.15502 452.07227 388.00391 C 450.82782 389.81724 450.20508 391.86116 450.20508 394.13672 C 450.20508 396.73227 450.87936 398.79533 452.23047 400.32422 C 453.58158 401.85311 455.19954 402.97249 457.08398 403.68359 C 458.96843 404.35915 461.31611 404.99908 464.125 405.60352 C 466.685 406.17241 468.53409 406.72253 469.67188 407.25586 C 470.84521 407.75363 471.43164 408.53685 471.43164 409.60352 C 471.43164 411.63018 469.4049 412.64258 465.35156 412.64258 C 463.21823 412.64258 461.0482 412.30641 458.84375 411.63086 C 456.6393 410.95531 454.70236 410.06512 453.03125 408.96289 L 449.56445 416.75 C 451.34223 417.99445 453.65361 418.98966 456.49805 419.73633 C 459.34249 420.48299 462.27661 420.85742 465.29883 420.85742 C 468.85439 420.85742 471.87635 420.32253 474.36523 419.25586 C 476.85412 418.15363 478.7204 416.69615 479.96484 414.88281 C 481.20929 413.06948 481.83203 411.04273 481.83203 408.80273 C 481.83203 406.20718 481.13862 404.16326 479.75195 402.66992 C 478.40084 401.14104 476.78288 400.03884 474.89844 399.36328 C 473.04955 398.65217 470.70187 397.99507 467.85742 397.39062 C 465.33298 396.85729 463.50301 396.34153 462.36523 395.84375 C 461.22745 395.34598 460.6582 394.59908 460.6582 393.60352 C 460.6582 392.60796 461.13766 391.80757 462.09766 391.20312 C 463.05766 390.56313 464.58777 390.24414 466.68555 390.24414 C 470.02777 390.24414 473.47569 391.20305 477.03125 393.12305 L 480.28516 385.2832 C 478.47182 384.21654 476.37441 383.41615 473.99219 382.88281 C 471.60996 382.31393 469.19161 382.0293 466.73828 382.0293 z M 270.19922 382.77734 L 270.19922 420.10938 L 279.95898 420.10938 L 279.95898 400.85742 L 289.50586 416.42969 L 294.19922 416.42969 L 303.79883 400.32422 L 303.90625 420.10938 L 313.61133 420.10938 L 313.50586 382.77734 L 304.8125 382.77734 L 292.01172 404.32422 L 278.89258 382.77734 L 270.19922 382.77734 z M 378.42773 382.77734 L 378.42773 420.10938 L 388.98828 420.10938 L 388.98828 410.18945 L 394.74805 410.18945 L 401.52148 420.10938 L 412.82812 420.10938 L 404.77539 408.37695 C 407.12206 407.23917 408.91766 405.67471 410.16211 403.68359 C 411.44211 401.65693 412.08203 399.29206 412.08203 396.58984 C 412.08203 393.78096 411.4058 391.34543 410.05469 389.2832 C 408.70357 387.18543 406.78381 385.5866 404.29492 384.48438 C 401.80604 383.3466 398.87192 382.77734 395.49414 382.77734 L 378.42773 382.77734 z M 431.50781 390.72266 C 428.48559 390.72266 425.76544 391.36258 423.34766 392.64258 C 420.92988 393.92258 419.02729 395.701 417.64062 397.97656 C 416.28951 400.21656 415.61328 402.75908 415.61328 405.60352 C 415.61328 408.48352 416.30669 411.06038 417.69336 413.33594 C 419.11558 415.61149 421.10797 417.38992 423.66797 418.66992 C 426.22797 419.94992 429.19644 420.58984 432.57422 420.58984 C 437.97867 420.58984 442.08564 419.02537 444.89453 415.89648 L 439.56055 410.34961 C 438.52943 411.2385 437.49791 411.87842 436.4668 412.26953 C 435.47124 412.66064 434.2812 412.85742 432.89453 412.85742 C 431.04564 412.85742 429.49835 412.46582 428.25391 411.68359 C 427.04502 410.86582 426.22745 409.71013 425.80078 408.2168 L 446.81445 408.2168 C 446.92112 406.6168 446.97461 405.78205 446.97461 405.71094 C 446.97461 402.6176 446.2812 399.95094 444.89453 397.71094 C 443.54342 395.43538 441.69432 393.71044 439.34766 392.53711 C 437.00099 391.32822 434.38781 390.72266 431.50781 390.72266 z M 500.95117 390.72266 C 497.75117 390.72266 494.88773 391.36258 492.36328 392.64258 C 489.83883 393.88702 487.86558 395.64827 486.44336 397.92383 C 485.05669 400.16383 484.36328 402.72352 484.36328 405.60352 C 484.36328 408.48352 485.05669 411.06038 486.44336 413.33594 C 487.86558 415.61149 489.83883 417.38992 492.36328 418.66992 C 494.88773 419.94992 497.75117 420.58984 500.95117 420.58984 C 504.22228 420.58984 507.04746 419.89643 509.42969 418.50977 C 511.81191 417.08755 513.50249 415.13147 514.49805 412.64258 L 506.65625 408.64258 C 505.3407 411.23814 503.42093 412.53711 500.89648 412.53711 C 499.08315 412.53711 497.57217 411.93155 496.36328 410.72266 C 495.18995 409.47822 494.60352 407.77241 494.60352 405.60352 C 494.60352 403.47018 495.18995 401.79873 496.36328 400.58984 C 497.57217 399.38096 499.08315 398.77734 500.89648 398.77734 C 503.42093 398.77734 505.3407 400.07437 506.65625 402.66992 L 514.49805 398.66992 C 513.50249 396.18104 511.81191 394.24409 509.42969 392.85742 C 507.04746 391.4352 504.22228 390.72266 500.95117 390.72266 z M 532.55859 390.72266 C 529.42971 390.72266 526.62171 391.36258 524.13281 392.64258 C 521.67948 393.88702 519.74058 395.64827 518.31836 397.92383 C 516.93169 400.19939 516.23828 402.75908 516.23828 405.60352 C 516.23828 408.48352 516.93169 411.06038 518.31836 413.33594 C 519.74058 415.61149 521.69665 417.38992 524.18555 418.66992 C 526.67443 419.94992 529.46526 420.58984 532.55859 420.58984 C 535.68748 420.58984 538.49743 419.94992 540.98633 418.66992 C 543.47521 417.38992 545.41216 415.61149 546.79883 413.33594 C 548.18549 411.06038 548.87891 408.48352 548.87891 405.60352 C 548.87891 402.72352 548.18549 400.16383 546.79883 397.92383 C 545.41216 395.64827 543.47521 393.88702 540.98633 392.64258 C 538.49743 391.36258 535.68748 390.72266 532.55859 390.72266 z M 572.93359 390.72266 C 570.80026 390.72266 568.89768 391.06077 567.22656 391.73633 C 565.59101 392.37633 564.25768 393.35437 563.22656 394.66992 L 563.22656 391.20312 L 553.57227 391.20312 L 553.57227 420.10938 L 563.70703 420.10938 L 563.70703 406.83008 C 563.70703 404.4123 564.31064 402.61669 565.51953 401.44336 C 566.76398 400.27003 568.47174 399.68359 570.64062 399.68359 C 571.24507 399.68359 572.00915 399.73708 572.93359 399.84375 L 572.93359 390.72266 z M 590.88281 390.72266 C 587.86059 390.72266 585.14044 391.36258 582.72266 392.64258 C 580.30488 393.92258 578.40229 395.701 577.01562 397.97656 C 575.66451 400.21656 574.98828 402.75908 574.98828 405.60352 C 574.98828 408.48352 575.68169 411.06038 577.06836 413.33594 C 578.49058 415.61149 580.48297 417.38992 583.04297 418.66992 C 585.60297 419.94992 588.57144 420.58984 591.94922 420.58984 C 597.35367 420.58984 601.46064 419.02537 604.26953 415.89648 L 598.93555 410.34961 C 597.90443 411.2385 596.87291 411.87842 595.8418 412.26953 C 594.84624 412.66064 593.6562 412.85742 592.26953 412.85742 C 590.42064 412.85742 588.87335 412.46582 587.62891 411.68359 C 586.42002 410.86582 585.60245 409.71013 585.17578 408.2168 L 606.18945 408.2168 C 606.29612 406.6168 606.34961 405.78205 606.34961 405.71094 C 606.34961 402.6176 605.6562 399.95094 604.26953 397.71094 C 602.91842 395.43538 601.06932 393.71044 598.72266 392.53711 C 596.37599 391.32822 593.76281 390.72266 590.88281 390.72266 z M 388.98828 391.09766 L 394.85547 391.09766 C 397.02436 391.09766 398.65949 391.57711 399.76172 392.53711 C 400.86394 393.49711 401.41406 394.84762 401.41406 396.58984 C 401.41406 398.33206 400.86394 399.68258 399.76172 400.64258 C 398.65949 401.56702 397.02436 402.0293 394.85547 402.0293 L 388.98828 402.0293 L 388.98828 391.09766 z M 431.56055 397.92383 C 433.12499 397.92383 434.42201 398.36697 435.45312 399.25586 C 436.51979 400.14475 437.19602 401.35393 437.48047 402.88281 L 425.64062 402.88281 C 425.92506 401.35393 426.58217 400.14475 427.61328 399.25586 C 428.67995 398.36697 429.9961 397.92383 431.56055 397.92383 z M 590.93555 397.92383 C 592.49999 397.92383 593.79701 398.36697 594.82812 399.25586 C 595.89479 400.14475 596.57102 401.35393 596.85547 402.88281 L 585.01562 402.88281 C 585.30007 401.35393 585.95717 400.14475 586.98828 399.25586 C 588.05495 398.36697 589.3711 397.92383 590.93555 397.92383 z M 532.55859 398.77734 C 534.33637 398.77734 535.79387 399.38096 536.93164 400.58984 C 538.06942 401.79873 538.63867 403.47018 538.63867 405.60352 C 538.63867 407.77241 538.06942 409.47822 536.93164 410.72266 C 535.79387 411.93155 534.33637 412.53711 532.55859 412.53711 C 530.78081 412.53711 529.32332 411.93155 528.18555 410.72266 C 527.04777 409.47822 526.47852 407.77241 526.47852 405.60352 C 526.47852 403.47018 527.04777 401.79873 528.18555 400.58984 C 529.32332 399.38096 530.78081 398.77734 532.55859 398.77734 z "
         style="font-style:normal;font-variant:normal;font-weight:normal;font-stretch:normal;font-size:53.33333588px;line-height:1.25;font-family:'Montserrat ExtraBold';-inkscape-font-specification:'Montserrat ExtraBold, ';text-align:center;text-anchor:middle;fill:#fafafa;fill-opacity:1"
         id="path836"
         d="m 362.55078,380.05664 c -2.45333,0 -4.53357,0.42596 -6.24023,1.2793 -1.70667,0.85333 -2.98651,2.02815 -3.83985,3.52148 l 5.17383,2.77344 c 0.42667,-0.71111 0.99592,-1.24601 1.70703,-1.60156 0.74667,-0.39112 1.60055,-0.58594 2.56055,-0.58594 1.03111,0 1.79519,0.19482 2.29297,0.58594 0.49778,0.35555 0.74609,0.83696 0.74609,1.4414 0,0.46222 -0.16047,0.95886 -0.48047,1.49219 -0.32,0.49778 -0.92361,1.12052 -1.8125,1.86719 l -8.85351,7.62695 v 4.21289 h 19.03906 v -5.2793 h -9.06641 l 4.05469,-3.46679 c 1.63555,-1.45778 2.75493,-2.70326 3.35938,-3.73438 0.60444,-1.03111 0.90625,-2.11418 0.90625,-3.25195 0,-2.06223 -0.87106,-3.7165 -2.61328,-4.96094 -1.74222,-1.28 -4.0536,-1.91992 -6.9336,-1.91992 z m -26.95898,1.97266 c -3.59112,0 -6.63026,0.53489 -9.11914,1.60156 -2.45334,1.06667 -4.30243,2.52416 -5.54688,4.37305 -1.24445,1.81333 -1.86719,3.85725 -1.86719,6.13281 0,2.59555 0.67623,4.65861 2.02735,6.1875 1.35111,1.52889 2.96907,2.64827 4.85351,3.35937 1.88445,0.67556 4.23018,1.31549 7.03907,1.91993 2.56,0.56889 4.40909,1.11901 5.54687,1.65234 1.17333,0.49777 1.75977,1.28099 1.75977,2.34766 0,2.02666 -2.02675,3.03906 -6.08008,3.03906 -2.13334,0 -4.30141,-0.33617 -6.50586,-1.01172 -2.20444,-0.67555 -4.14334,-1.56574 -5.81445,-2.66797 l -3.4668,7.78711 c 1.77778,1.24445 4.08915,2.23966 6.93359,2.98633 2.84444,0.74666 5.77856,1.12109 8.80078,1.12109 3.55556,0 6.57752,-0.53489 9.06641,-1.60156 2.48889,-1.10223 4.35517,-2.55971 5.59961,-4.37305 1.24445,-1.81333 1.86719,-3.84008 1.86719,-6.08008 0,-2.59555 -0.69341,-4.63947 -2.08008,-6.13281 -1.35111,-1.52888 -2.96908,-2.63108 -4.85352,-3.30664 -1.84889,-0.71111 -4.19462,-1.36821 -7.03906,-1.97266 -2.52445,-0.53333 -4.35636,-1.04909 -5.49414,-1.54687 -1.13777,-0.49777 -1.70703,-1.24467 -1.70703,-2.24023 0,-0.99556 0.48141,-1.79595 1.4414,-2.4004 0.96,-0.64 2.48817,-0.95898 4.58594,-0.95898 3.34223,0 6.79015,0.95891 10.34571,2.87891 l 3.2539,-7.83985 c -1.81333,-1.06666 -3.91075,-1.86705 -6.29297,-2.40039 -2.38222,-0.56888 -4.80057,-0.85351 -7.2539,-0.85351 z m 131.14648,0 c -3.59111,0 -6.6322,0.53489 -9.12109,1.60156 -2.45334,1.06667 -4.30048,2.52416 -5.54492,4.37305 -1.24445,1.81333 -1.86719,3.85725 -1.86719,6.13281 0,2.59555 0.67428,4.65861 2.02539,6.1875 1.35111,1.52889 2.96907,2.64827 4.85351,3.35937 1.88445,0.67556 4.23213,1.31549 7.04102,1.91993 2.56,0.56889 4.40909,1.11901 5.54688,1.65234 1.17333,0.49777 1.75976,1.28099 1.75976,2.34766 0,2.02666 -2.02674,3.03906 -6.08008,3.03906 -2.13333,0 -4.30336,-0.33617 -6.50781,-1.01172 -2.20445,-0.67555 -4.14139,-1.56574 -5.8125,-2.66797 l -3.4668,7.78711 c 1.77778,1.24445 4.08916,2.23966 6.9336,2.98633 2.84444,0.74666 5.77856,1.12109 8.80078,1.12109 3.55556,0 6.57752,-0.53489 9.0664,-1.60156 2.48889,-1.10223 4.35517,-2.55971 5.59961,-4.37305 1.24445,-1.81333 1.86719,-3.84008 1.86719,-6.08008 0,-2.59555 -0.69341,-4.63947 -2.08008,-6.13281 -1.35111,-1.52888 -2.96907,-2.63108 -4.85351,-3.30664 -1.84889,-0.71111 -4.19657,-1.36821 -7.04102,-1.97266 -2.52444,-0.53333 -4.35441,-1.04909 -5.49219,-1.54687 -1.13778,-0.49777 -1.70703,-1.24467 -1.70703,-2.24023 0,-0.99556 0.47946,-1.79595 1.43946,-2.4004 0.96,-0.63999 2.49011,-0.95898 4.58789,-0.95898 3.34222,0 6.79014,0.95891 10.3457,2.87891 l 3.25391,-7.83985 c -1.81334,-1.06666 -3.91075,-1.86705 -6.29297,-2.40039 -2.38223,-0.56888 -4.80058,-0.85351 -7.25391,-0.85351 z m -196.53906,0.74804 v 37.33204 h 9.75976 v -19.25196 l 9.54688,15.57227 h 4.69336 l 9.59961,-16.10547 0.10742,19.78516 h 9.70508 l -0.10547,-37.33204 h -8.69336 l -12.80078,21.54688 -13.11914,-21.54688 z m 108.22851,0 v 37.33204 h 10.56055 v -9.91993 h 5.75977 l 6.77343,9.91993 h 11.30664 l -8.05273,-11.73243 c 2.34667,-1.13778 4.14227,-2.70224 5.38672,-4.69336 1.28,-2.02666 1.91992,-4.39153 1.91992,-7.09375 0,-2.80888 -0.67623,-5.24441 -2.02734,-7.30664 -1.35112,-2.09777 -3.27088,-3.6966 -5.75977,-4.79882 -2.48888,-1.13778 -5.423,-1.70704 -8.80078,-1.70704 z m 53.08008,7.94532 c -3.02222,0 -5.74237,0.63992 -8.16015,1.91992 -2.41778,1.28 -4.32037,3.05842 -5.70704,5.33398 -1.35111,2.24 -2.02734,4.78252 -2.02734,7.62696 0,2.88 0.69341,5.45686 2.08008,7.73242 1.42222,2.27555 3.41461,4.05398 5.97461,5.33398 2.56,1.28 5.52847,1.91992 8.90625,1.91992 5.40445,0 9.51142,-1.56447 12.32031,-4.69336 l -5.33398,-5.54687 c -1.03112,0.88889 -2.06264,1.52881 -3.09375,1.91992 -0.99556,0.39111 -2.1856,0.58789 -3.57227,0.58789 -1.84889,0 -3.39618,-0.3916 -4.64062,-1.17383 -1.20889,-0.81777 -2.02646,-1.97346 -2.45313,-3.46679 h 21.01367 c 0.10667,-1.6 0.16016,-2.43475 0.16016,-2.50586 0,-3.09334 -0.69341,-5.76 -2.08008,-8 -1.35111,-2.27556 -3.20021,-4.0005 -5.54687,-5.17383 -2.34667,-1.20889 -4.95985,-1.81445 -7.83985,-1.81445 z m 69.44336,0 c -3.2,0 -6.06344,0.63992 -8.58789,1.91992 -2.52445,1.24444 -4.4977,3.00569 -5.91992,5.28125 -1.38667,2.24 -2.08008,4.79969 -2.08008,7.67969 0,2.88 0.69341,5.45686 2.08008,7.73242 1.42222,2.27555 3.39547,4.05398 5.91992,5.33398 2.52445,1.28 5.38789,1.91992 8.58789,1.91992 3.27111,0 6.09629,-0.69341 8.47852,-2.08007 2.38222,-1.42222 4.0728,-3.3783 5.06836,-5.86719 l -7.8418,-4 c -1.31555,2.59556 -3.23532,3.89453 -5.75977,3.89453 -1.81333,0 -3.32431,-0.60556 -4.5332,-1.81445 -1.17333,-1.24444 -1.75976,-2.95025 -1.75976,-5.11914 0,-2.13334 0.58643,-3.80479 1.75976,-5.01368 1.20889,-1.20888 2.71987,-1.8125 4.5332,-1.8125 2.52445,0 4.44422,1.29703 5.75977,3.89258 l 7.8418,-4 c -0.99556,-2.48888 -2.68614,-4.42583 -5.06836,-5.8125 -2.38223,-1.42222 -5.20741,-2.13476 -8.47852,-2.13476 z m 31.60742,0 c -3.12888,0 -5.93688,0.63992 -8.42578,1.91992 -2.45333,1.24444 -4.39223,3.00569 -5.81445,5.28125 -1.38667,2.27556 -2.08008,4.83525 -2.08008,7.67969 0,2.88 0.69341,5.45686 2.08008,7.73242 1.42222,2.27555 3.37829,4.05398 5.86719,5.33398 2.48888,1.28 5.27971,1.91992 8.37304,1.91992 3.12889,0 5.93884,-0.63992 8.42774,-1.91992 2.48888,-1.28 4.42583,-3.05843 5.8125,-5.33398 1.38666,-2.27556 2.08008,-4.85242 2.08008,-7.73242 0,-2.88 -0.69342,-5.43969 -2.08008,-7.67969 -1.38667,-2.27556 -3.32362,-4.03681 -5.8125,-5.28125 -2.4889,-1.28 -5.29885,-1.91992 -8.42774,-1.91992 z m 40.375,0 c -2.13333,0 -4.03591,0.33811 -5.70703,1.01367 -1.63555,0.64 -2.96888,1.61804 -4,2.93359 v -3.4668 h -9.65429 v 28.90626 h 10.13476 v -13.2793 c 0,-2.41778 0.60361,-4.21339 1.8125,-5.38672 1.24445,-1.17333 2.95221,-1.75977 5.12109,-1.75977 0.60445,0 1.36853,0.0535 2.29297,0.16016 z m 17.94922,0 c -3.02222,0 -5.74237,0.63992 -8.16015,1.91992 -2.41778,1.28 -4.32037,3.05842 -5.70704,5.33398 -1.35111,2.24 -2.02734,4.78252 -2.02734,7.62696 0,2.88 0.69341,5.45686 2.08008,7.73242 1.42222,2.27555 3.41461,4.05398 5.97461,5.33398 2.56,1.28 5.52847,1.91992 8.90625,1.91992 5.40445,0 9.51142,-1.56447 12.32031,-4.69336 l -5.33398,-5.54687 c -1.03112,0.88889 -2.06264,1.52881 -3.09375,1.91992 -0.99556,0.39111 -2.1856,0.58789 -3.57227,0.58789 -1.84889,0 -3.39618,-0.3916 -4.64062,-1.17383 -1.20889,-0.81777 -2.02646,-1.97346 -2.45313,-3.46679 h 21.01367 c 0.10667,-1.6 0.16016,-2.43475 0.16016,-2.50586 0,-3.09334 -0.69341,-5.76 -2.08008,-8 -1.35111,-2.27556 -3.20021,-4.0005 -5.54687,-5.17383 -2.34667,-1.20889 -4.95985,-1.81445 -7.83985,-1.81445 z m -201.89453,0.375 h 5.86719 c 2.16889,0 3.80402,0.47945 4.90625,1.43945 1.10222,0.96 1.65234,2.31051 1.65234,4.05273 0,1.74222 -0.55012,3.09274 -1.65234,4.05274 -1.10223,0.92444 -2.73736,1.38672 -4.90625,1.38672 h -5.86719 z m 42.57227,6.82617 c 1.56444,0 2.86146,0.44314 3.89257,1.33203 1.06667,0.88889 1.7429,2.09807 2.02735,3.62695 h -11.83985 c 0.28444,-1.52888 0.94155,-2.73806 1.97266,-3.62695 1.06667,-0.88889 2.38282,-1.33203 3.94727,-1.33203 z m 159.375,0 c 1.56444,0 2.86146,0.44314 3.89257,1.33203 1.06667,0.88889 1.7429,2.09807 2.02735,3.62695 h -11.83985 c 0.28445,-1.52888 0.94155,-2.73806 1.97266,-3.62695 1.06667,-0.88889 2.38282,-1.33203 3.94727,-1.33203 z m -58.37696,0.85351 c 1.77778,0 3.23528,0.60362 4.37305,1.8125 1.13778,1.20889 1.70703,2.88034 1.70703,5.01368 0,2.16889 -0.56925,3.8747 -1.70703,5.11914 -1.13777,1.20889 -2.59527,1.81445 -4.37305,1.81445 -1.77778,0 -3.23527,-0.60556 -4.37304,-1.81445 -1.13778,-1.24444 -1.70703,-2.95025 -1.70703,-5.11914 0,-2.13334 0.56925,-3.80479 1.70703,-5.01368 1.13777,-1.20888 2.59526,-1.8125 4.37304,-1.8125 z" />
    </g>
  </g>
</svg>
